<svg xmlns="http://www.w3.org/2000/svg" viewBox="0 0 361.4 229.99"><path d="M361.4,115H317.85a122.47,122.47,0,0,0-19.57-45.57A74.25,74.25,0,0,0,294,4.12,8.2,8.2,0,0,0,286.92,0h0a74.28,74.28,0,0,0-52.69,22.14,122.61,122.61,0,0,0-37.09-5.72H164.28a122.61,122.61,0,0,0-37.09,5.72A74.3,74.3,0,0,0,74.49,0h0a8.22,8.22,0,0,0-7.12,4.12,74.28,74.28,0,0,0-4.24,65.3A122.63,122.63,0,0,0,43.55,115H0v16.43H41.37c-.18,2.72-.3,5.45-.3,8.21v8.21H0v16.43H41.07v49.28H257.61a28.73,28.73,0,0,0,23.78,16.36c.67.05,1.33.07,2,.07a28.79,28.79,0,0,0,12.32-2.79A28.64,28.64,0,0,0,308,230a30,30,0,0,0,12.36-2.77A28.93,28.93,0,0,0,332.69,230c.52,0,1.06,0,1.59-.05,0,0,0,0,0,0h.34c15-1,26.78-13.94,26.77-29.39,0-6.42,0-19.79-7.39-31.54a40.57,40.57,0,0,0-3.48-4.71H361.4V147.84H320.33v-8.21c0-2.76-.12-5.5-.3-8.21H361.4Z" fill="#1144ee"/><path d="M197.12,32.85H164.27A106.9,106.9,0,0,0,57.49,139.63v57.49H254.65c.16-7.07,1.1-18.17,7.36-28.15,5.73-9.14,17.63-19.92,41.89-21v-8.32A106.9,106.9,0,0,0,197.12,32.85Z" fill="#ffffff"/><path d="M96.72,115a4.11,4.11,0,0,1-3.41-6.42c3.16-4.61,9.47-10,21.68-10,17,0,26.21,9.8,30.26,15.86a2,2,0,0,1-2.16,3.15c-4.8-1.17-13.61-2.59-28.1-2.59H96.72Z" fill="#1144ee"/><path d="M180.7,123.73c11,0,16.43,0,16.43,5.48,0,4-8.72,8-13.46,9.85a8,8,0,0,1-5.94,0c-4.73-1.87-13.46-5.86-13.46-9.85C164.27,123.73,169.75,123.73,180.7,123.73Z" fill="#ff77aa"/><path d="M118.66,148.29a1.36,1.36,0,0,1,2.08-1.67c5,4.47,13.56,9.43,27.1,9.43,16.43,0,24.64-8.21,32.85-8.21s16.43,8.21,32.85,8.21c13.54,0,22.12-5,27.1-9.43a1.36,1.36,0,0,1,2.08,1.67c-4.5,8.46-13.52,20.08-29.19,20.08-16.43,0-24.64-8.21-32.85-8.21s-16.43,8.21-32.85,8.21C132.18,168.37,123.16,156.75,118.66,148.29Z" fill="#1144ee"/><circle cx="82.14" cy="147.83" r="16.43" fill="#bbccff"/><path d="M197.13,32.84H164.28c-1,0-1.9,0-2.85.07C158.51,49,171,68.17,191.37,62.12c10.73-3.19,27.79-7.15,36.69,2.5,7.84,8.51,1.48,22.69,6.84,32.95,11.4,21.81,42.87,24.23,66.76,20.23A107,107,0,0,0,197.13,32.84Z" fill="#bbccff"/><path d="M264.68,115a4.11,4.11,0,0,0,3.41-6.42c-3.16-4.61-9.47-10-21.68-10-17,0-26.21,9.8-30.26,15.86a2,2,0,0,0,2.16,3.15c4.8-1.17,13.61-2.59,28.1-2.59h18.27Z" fill="#1144ee"/><path d="M269,160.6c5.77-5.26,14.23-9.93,26.56-11.83,0-.31.09-.61.09-.93A16.43,16.43,0,1,0,269,160.6Z" fill="#bbccff"/><path d="M308,164.26c-36.28,0-36.95,23.74-37,36.27,0,6.6,4.87,12.54,11.46,13a12.32,12.32,0,0,0,11.46-6,2,2,0,0,1,3.42-.05,12.33,12.33,0,0,0,21.26,0,2,2,0,0,1,3.42.05,12.32,12.32,0,0,0,11.46,6c6.59-.45,11.46-6.38,11.46-13C345,188,344.29,164.26,308,164.26Z" fill="#ffffff"/></svg>